<mxfile host="app.diagrams.net" modified="2024-05-21T12:30:10.287Z" agent="Mozilla/5.0 (X11; Linux x86_64) AppleWebKit/537.36 (KHTML, like Gecko) Chrome/118.0.0.0 Safari/537.36" etag="wS6b2o0KIJ8wJE0n12lj" version="24.4.4" type="device">
  <diagram name="Página-1" id="KBkRpYWVLK2xIWcRDHk_">
    <mxGraphModel dx="1434" dy="758" grid="1" gridSize="10" guides="1" tooltips="1" connect="1" arrows="1" fold="1" page="1" pageScale="1" pageWidth="827" pageHeight="1169" math="0" shadow="0">
      <root>
        <mxCell id="0" />
        <mxCell id="1" parent="0" />
        <mxCell id="H51cQPnkgXDEXluvFMR6-1" value="" style="ellipse;whiteSpace=wrap;html=1;aspect=fixed;fillColor=#0D0D0D;" vertex="1" parent="1">
          <mxGeometry x="399" y="80" width="30" height="30" as="geometry" />
        </mxCell>
        <mxCell id="H51cQPnkgXDEXluvFMR6-2" value="Accede a la pagina" style="rounded=1;whiteSpace=wrap;html=1;" vertex="1" parent="1">
          <mxGeometry x="354" y="170" width="120" height="60" as="geometry" />
        </mxCell>
        <mxCell id="H51cQPnkgXDEXluvFMR6-3" value="Accede a la sección de proyectos" style="rounded=1;whiteSpace=wrap;html=1;" vertex="1" parent="1">
          <mxGeometry x="354" y="250" width="120" height="60" as="geometry" />
        </mxCell>
        <mxCell id="H51cQPnkgXDEXluvFMR6-4" value="Muestra todos los proyectos y un menu de busqueda avanzada" style="rounded=1;whiteSpace=wrap;html=1;" vertex="1" parent="1">
          <mxGeometry x="354" y="330" width="120" height="60" as="geometry" />
        </mxCell>
        <mxCell id="H51cQPnkgXDEXluvFMR6-5" value="Accede a un proyecto" style="rounded=1;whiteSpace=wrap;html=1;" vertex="1" parent="1">
          <mxGeometry x="260" y="480" width="120" height="60" as="geometry" />
        </mxCell>
        <mxCell id="H51cQPnkgXDEXluvFMR6-6" value="Fin" style="rounded=1;whiteSpace=wrap;html=1;" vertex="1" parent="1">
          <mxGeometry x="370" y="610" width="120" height="60" as="geometry" />
        </mxCell>
        <mxCell id="H51cQPnkgXDEXluvFMR6-7" value="" style="endArrow=classic;html=1;rounded=0;exitX=0.5;exitY=1;exitDx=0;exitDy=0;entryX=0.5;entryY=0;entryDx=0;entryDy=0;" edge="1" parent="1" source="H51cQPnkgXDEXluvFMR6-1" target="H51cQPnkgXDEXluvFMR6-2">
          <mxGeometry width="50" height="50" relative="1" as="geometry">
            <mxPoint x="390" y="420" as="sourcePoint" />
            <mxPoint x="440" y="370" as="targetPoint" />
          </mxGeometry>
        </mxCell>
        <mxCell id="H51cQPnkgXDEXluvFMR6-8" value="" style="endArrow=classic;html=1;rounded=0;exitX=0.5;exitY=1;exitDx=0;exitDy=0;entryX=0.5;entryY=0;entryDx=0;entryDy=0;" edge="1" parent="1" source="H51cQPnkgXDEXluvFMR6-2" target="H51cQPnkgXDEXluvFMR6-3">
          <mxGeometry width="50" height="50" relative="1" as="geometry">
            <mxPoint x="424" y="120" as="sourcePoint" />
            <mxPoint x="424" y="180" as="targetPoint" />
          </mxGeometry>
        </mxCell>
        <mxCell id="H51cQPnkgXDEXluvFMR6-9" value="" style="endArrow=classic;html=1;rounded=0;exitX=0.5;exitY=1;exitDx=0;exitDy=0;entryX=0.5;entryY=0;entryDx=0;entryDy=0;" edge="1" parent="1" source="H51cQPnkgXDEXluvFMR6-3" target="H51cQPnkgXDEXluvFMR6-4">
          <mxGeometry width="50" height="50" relative="1" as="geometry">
            <mxPoint x="434" y="130" as="sourcePoint" />
            <mxPoint x="434" y="190" as="targetPoint" />
          </mxGeometry>
        </mxCell>
        <mxCell id="H51cQPnkgXDEXluvFMR6-10" value="" style="endArrow=classic;html=1;rounded=0;exitX=0;exitY=0.5;exitDx=0;exitDy=0;entryX=0.5;entryY=0;entryDx=0;entryDy=0;" edge="1" parent="1" source="H51cQPnkgXDEXluvFMR6-4" target="H51cQPnkgXDEXluvFMR6-5">
          <mxGeometry width="50" height="50" relative="1" as="geometry">
            <mxPoint x="444" y="140" as="sourcePoint" />
            <mxPoint x="444" y="200" as="targetPoint" />
            <Array as="points">
              <mxPoint x="320" y="360" />
            </Array>
          </mxGeometry>
        </mxCell>
        <mxCell id="H51cQPnkgXDEXluvFMR6-11" value="" style="endArrow=classic;html=1;rounded=0;exitX=0.5;exitY=1;exitDx=0;exitDy=0;entryX=0.5;entryY=0;entryDx=0;entryDy=0;" edge="1" parent="1" source="H51cQPnkgXDEXluvFMR6-5" target="H51cQPnkgXDEXluvFMR6-6">
          <mxGeometry width="50" height="50" relative="1" as="geometry">
            <mxPoint x="454" y="150" as="sourcePoint" />
            <mxPoint x="454" y="210" as="targetPoint" />
          </mxGeometry>
        </mxCell>
        <mxCell id="H51cQPnkgXDEXluvFMR6-17" value="Aceede a busqueda y rellena campos" style="rounded=1;whiteSpace=wrap;html=1;" vertex="1" parent="1">
          <mxGeometry x="460" y="400" width="120" height="60" as="geometry" />
        </mxCell>
        <mxCell id="H51cQPnkgXDEXluvFMR6-18" value="" style="endArrow=classic;html=1;rounded=0;exitX=1;exitY=0.5;exitDx=0;exitDy=0;entryX=0.5;entryY=0;entryDx=0;entryDy=0;" edge="1" parent="1" source="H51cQPnkgXDEXluvFMR6-4" target="H51cQPnkgXDEXluvFMR6-17">
          <mxGeometry width="50" height="50" relative="1" as="geometry">
            <mxPoint x="390" y="420" as="sourcePoint" />
            <mxPoint x="440" y="370" as="targetPoint" />
            <Array as="points">
              <mxPoint x="520" y="360" />
            </Array>
          </mxGeometry>
        </mxCell>
        <mxCell id="H51cQPnkgXDEXluvFMR6-19" value="Muestra los proyectos que cumplen los requisitos" style="rounded=1;whiteSpace=wrap;html=1;" vertex="1" parent="1">
          <mxGeometry x="460" y="480" width="120" height="60" as="geometry" />
        </mxCell>
        <mxCell id="H51cQPnkgXDEXluvFMR6-20" value="" style="endArrow=classic;html=1;rounded=0;exitX=0.5;exitY=1;exitDx=0;exitDy=0;entryX=0.5;entryY=0;entryDx=0;entryDy=0;" edge="1" parent="1" source="H51cQPnkgXDEXluvFMR6-17" target="H51cQPnkgXDEXluvFMR6-19">
          <mxGeometry width="50" height="50" relative="1" as="geometry">
            <mxPoint x="390" y="420" as="sourcePoint" />
            <mxPoint x="440" y="370" as="targetPoint" />
          </mxGeometry>
        </mxCell>
        <mxCell id="H51cQPnkgXDEXluvFMR6-21" value="" style="endArrow=classic;html=1;rounded=0;exitX=0;exitY=0.5;exitDx=0;exitDy=0;entryX=1;entryY=0.5;entryDx=0;entryDy=0;" edge="1" parent="1" source="H51cQPnkgXDEXluvFMR6-19" target="H51cQPnkgXDEXluvFMR6-5">
          <mxGeometry width="50" height="50" relative="1" as="geometry">
            <mxPoint x="390" y="420" as="sourcePoint" />
            <mxPoint x="440" y="370" as="targetPoint" />
          </mxGeometry>
        </mxCell>
      </root>
    </mxGraphModel>
  </diagram>
</mxfile>
